<svg width="140" height="40" viewBox="0 0 60 45" class="everLogo">
    <g id="logo" data-name="Logo" transform="translate(-30 10)">
        <path id="bottom-logo" data-name="ever copy 4"
            d="M66.555,24.8a13.625,13.625,0,0,1-4.8-.8,9.237,9.237,0,0,1-3.415-2.2A10.477,10.477,0,0,1,55.62,14.31,14.372,14.372,0,0,1,59.631,4.151,14.187,14.187,0,0,1,69.885,0a9.82,9.82,0,0,1,6.851,2.3A7.7,7.7,0,0,1,79.065,8.1a15.708,15.708,0,0,1-1.44,6.165h-14a3.552,3.552,0,0,0,.971,2.629,4.872,4.872,0,0,0,3.574,1.241,13.484,13.484,0,0,0,6.345-2.07l2.25,5.94A19.19,19.19,0,0,1,66.555,24.8ZM69.48,6.165a5.041,5.041,0,0,0-4.9,3.42h7.6a3.806,3.806,0,0,0,.225-1.17C72.405,7.027,71.284,6.165,69.48,6.165ZM10.935,24.8a13.625,13.625,0,0,1-4.8-.8,9.237,9.237,0,0,1-3.415-2.2A10.477,10.477,0,0,1,0,14.31,14.372,14.372,0,0,1,4.011,4.151,14.187,14.187,0,0,1,14.265,0a9.82,9.82,0,0,1,6.851,2.3A7.7,7.7,0,0,1,23.445,8.1a15.708,15.708,0,0,1-1.44,6.165H8.01a3.552,3.552,0,0,0,.971,2.629,4.872,4.872,0,0,0,3.574,1.241,13.484,13.484,0,0,0,6.345-2.07l2.25,5.94A19.19,19.19,0,0,1,10.935,24.8ZM13.86,6.165a5.041,5.041,0,0,0-4.905,3.42H16.56a3.806,3.806,0,0,0,.225-1.17C16.785,7.027,15.664,6.165,13.86,6.165Zm24.39,18.45c-3.728,0-6.422-.957-8.007-2.844-1.5-1.782-1.967-4.337-1.4-7.6l.81-4.725c.176-.88.145-1.405-.1-1.7a.859.859,0,0,0-.711-.276,5.584,5.584,0,0,0-2.2.495l.945-6.84a15.538,15.538,0,0,1,5.58-.9c2.083,0,3.594.544,4.492,1.618.985,1.178,1.26,3.026.818,5.492l-.99,5.49c-.254,1.609-.119,2.694.412,3.316a1.9,1.9,0,0,0,1.523.6,3.306,3.306,0,0,0,3.054-1.71c.761-1.274,1.131-3.246,1.131-6.03A34.578,34.578,0,0,0,42.435.63H51.39a48.6,48.6,0,0,1,.675,7.56C52.065,18.782,47.159,24.615,38.25,24.615Zm53.5-.45H83.34L85.905,9.45a2.351,2.351,0,0,0-.125-1.723A.844.844,0,0,0,85.1,7.47a7.2,7.2,0,0,0-2.25.495l.99-6.84a17.294,17.294,0,0,1,5.625-.9,6.6,6.6,0,0,1,3.426.793A4,4,0,0,1,94.725,3.6,6.823,6.823,0,0,1,100.71.225a8.314,8.314,0,0,1,3.96.945l-2.385,7.92a10.011,10.011,0,0,0-4.275-.945c-2.732,0-3.738,2.34-4.1,3.735l-2.16,12.284Z">
        </path>
        <g id="Group_4_Copy_2" data-name="Group 4 Copy 2" transform="translate(101 15)">
            <path id="bottom-logo-2" data-name="Combined Shape"
                d="M0,5a5,5,0,1,1,5,5A5.006,5.006,0,0,1,0,5ZM.667,5A4.333,4.333,0,1,0,5,.667,4.338,4.338,0,0,0,.667,5ZM3.4,7.5H2.713l.926-5.332,1.6,0A1.8,1.8,0,0,1,6.521,2.6a1.333,1.333,0,0,1,.37,1.147,1.526,1.526,0,0,1-.365.882,2.012,2.012,0,0,1-.862.575l.827,2.253,0,.046H5.756L5.009,5.343H3.778L3.4,7.5h0Zm.473-2.732,1.011,0a1.424,1.424,0,0,0,.89-.28A1.1,1.1,0,0,0,6.2,3.743a.867.867,0,0,0-.184-.718.983.983,0,0,0-.725-.274l-1.066,0Z">
            </path>
        </g>
    </g>
</svg>