<?xml version="1.0" encoding="UTF-8" standalone="no" ?>
<!DOCTYPE svg PUBLIC "-//W3C//DTD SVG 1.1//EN" "http://www.w3.org/Graphics/SVG/1.1/DTD/svg11.dtd">
<svg xmlns="http://www.w3.org/2000/svg" xmlns:xlink="http://www.w3.org/1999/xlink" version="1.1" width="1080" height="1080" viewBox="0 0 1080 1080" xml:space="preserve">
<desc>Created with Fabric.js 5.2.4</desc>
<defs>
</defs>
<g transform="matrix(1 0 0 1 540 540)" id="5dea8432-6f28-4dea-859f-46228e14d547"  >
<rect style="stroke: none; stroke-width: 1; stroke-dasharray: none; stroke-linecap: butt; stroke-dashoffset: 0; stroke-linejoin: miter; stroke-miterlimit: 4; fill: rgb(255,255,255); fill-rule: nonzero; opacity: 1; visibility: hidden;" vector-effect="non-scaling-stroke"  x="-540" y="-540" rx="0" ry="0" width="1080" height="1080" />
</g>
<g transform="matrix(1 0 0 1 540 540)" id="f57e43af-ede7-41ec-9a22-1be889662f95"  >
</g>
<g transform="matrix(1 0 0 1 540 540)"  >
<g style="" vector-effect="non-scaling-stroke"   >
		<g transform="matrix(0.89 0 0 0.89 -2.81 -0.09)" id="bottom-logo"  >
<path style="stroke: none; stroke-width: 1; stroke-dasharray: none; stroke-linecap: butt; stroke-dashoffset: 0; stroke-linejoin: miter; stroke-miterlimit: 4; fill: rgb(255,255,255); fill-rule: nonzero; opacity: 1;" vector-effect="non-scaling-stroke"  transform=" translate(-52.33, -12.39)" d="M 66.555 24.8 C 64.9199571347395 24.82353126981702 63.29403040665713 24.552543481803294 61.75500000000001 24 C 60.46751778452828 23.529164490397694 59.300977548465795 22.777659799522887 58.34000000000001 21.8 C 56.48220598671229 19.75903932148503 55.50476012387009 17.067469647702687 55.62 14.310000000000006 C 55.56802899690554 10.527783020596805 57.00921860028386 6.877559839165647 59.631 4.151000000000005 C 62.34650923581597 1.4368415625302733 66.0461269523699 -0.060828921321429696 69.885 0 C 72.3780041883617 -0.13205655142585979 74.82771560981837 0.6903542308468493 76.736 2.2999999999999936 C 78.29735679691548 3.8171544341769152 79.14350699158041 5.924355434201196 79.065 8.099999999999994 C 79.00838967641451 10.231433771281917 78.51844016139925 12.329030132441007 77.625 14.265 L 63.625 14.265 C 63.57465258065032 15.237378828169533 63.92568064773046 16.187793646247457 64.596 16.894 C 65.5715188534134 17.77222486535479 66.86013482670683 18.21967098255041 68.17 18.135 C 70.42504508655115 17.987598403221536 72.60687755257575 17.27579490366741 74.515 16.064999999999998 L 76.765 22.005000000000003 C 73.69102375170782 23.875484828731324 70.15306991532199 24.84400402292314 66.555 24.800000000000008 Z M 69.48 6.165 C 67.27420821309461 6.109761009496213 65.2888322469225 7.495472398130622 64.58 9.584999999999999 L 72.17999999999999 9.585 C 72.31595666345991 9.209230223333405 72.39188679882893 8.814393519414455 72.40499999999999 8.415000000000001 C 72.405 7.027 71.284 6.165 69.48 6.165 Z M 10.935 24.8 C 9.299957134739495 24.82353126981702 7.674030406657119 24.55254348180329 6.135 24 C 4.847517784528278 23.529164490397694 3.68097754846579 22.777659799522883 2.720000000000003 21.8 C 0.8622059867122811 19.75903932148503 -0.1152398761299045 17.067469647702687 8.881784197001252e-16 14.31000000000001 C -0.05197100309446081 10.527783020596805 1.389218600283857 6.877559839165647 4.010999999999992 4.151000000000003 C 6.7265092358159695 1.4368415625302737 10.426126952369891 -0.06082892132142881 14.26499999999999 -1.7763568394002505e-15 C 16.758004188361703 -0.13205655142585979 19.207715609818372 0.6903542308468493 21.115999999999996 2.2999999999999936 C 22.677356796915483 3.8171544341769144 23.523506991580405 5.9243554342012015 23.445 8.1 C 23.38838967641452 10.231433771281917 22.89844016139926 12.329030132441009 22.005000000000003 14.265000000000002 L 8.01 14.265 C 7.9596525806503236 15.237378828169533 8.310680647730456 16.187793646247457 8.981 16.894000000000002 C 9.95651885341339 17.77222486535479 11.245134826706828 18.21967098255041 12.555000000000001 18.135 C 14.810045086551145 17.987598403221536 16.991877552575748 17.27579490366741 18.900000000000006 16.064999999999998 L 21.15 22.005000000000003 C 18.0745781069878 23.876390072664787 14.534763970329525 24.844944209909997 10.934999999999999 24.799999999999997 Z M 13.86 6.165 C 11.652383720157383 6.107542338003583 9.66438091660432 7.493672733141498 8.954999999999998 9.585000000000003 L 16.56 9.585 C 16.69595666345992 9.209230223333405 16.771886798828948 8.814393519414457 16.785 8.415000000000003 C 16.785 7.027 15.664 6.165 13.86 6.165 Z M 38.25 24.615 C 34.522 24.615 31.828 23.657999999999998 30.243000000000002 21.770999999999997 C 28.743000000000002 19.988999999999997 28.276000000000003 17.433999999999997 28.843000000000004 14.170999999999998 L 29.653000000000002 9.445999999999998 C 29.829 8.565999999999997 29.798000000000002 8.040999999999999 29.553 7.745999999999998 C 29.3720742221608 7.548061576221885 29.10908899503249 7.445974483834523 28.842000000000002 7.469999999999998 C 28.082634707968925 7.4836703763627765 27.33403958927805 7.652104278068221 26.641999999999996 7.964999999999999 L 27.587000000000003 1.1249999999999982 C 29.376334779230035 0.48638042114582214 31.267619246648973 0.1813345393040564 33.166999999999994 0.2249999999999961 C 35.25 0.2249999999999982 36.761 0.7689999999999982 37.659 1.8429999999999982 C 38.644 3.020999999999998 38.919 4.868999999999998 38.477 7.334999999999998 L 37.486999999999995 12.825 C 37.233 14.434 37.367999999999995 15.518999999999998 37.898999999999994 16.141 C 38.29006771443335 16.560645770566705 38.84979005650486 16.781153587535126 39.422 16.741 C 40.68298917046345 16.800841633277106 41.86798063848636 16.13733953428589 42.476 15.030999999999999 C 43.237 13.756999999999998 43.607 11.784999999999998 43.607 9.000999999999998 C 43.560137413871885 6.173237322799631 43.16653063222665 3.3619042433181905 42.434999999999995 0.6299999999999741 L 51.39 0.63 C 51.81173654841423 3.128550269036189 52.037424628742926 5.656256768717601 52.065 8.189999999999966 C 52.065 18.782 47.159 24.615 38.25 24.615 Z M 91.75 24.165 L 83.34 24.165 L 85.905 9.45 C 86.08350115165489 8.880615149550234 86.03881480189276 8.264658504429187 85.78 7.7269999999999985 C 85.60373061552914 7.543106065304016 85.35383557327073 7.4486604390387035 85.1 7.47 C 84.32829271541826 7.51316272310799 83.56856948700447 7.680301833359022 82.85 7.965 L 83.83999999999999 1.125 C 85.65236083302027 0.5161322969005051 87.55314151649101 0.2120073875451849 89.46499999999997 0.22499999999999787 C 90.65770087103918 0.17463300966747586 91.84173166789105 0.448695012558177 92.89099999999999 1.0180000000000002 C 93.83153131441817 1.5896879745132069 94.49493704984066 2.523664860478768 94.725 3.6000000000000023 C 95.96663096904193 1.4792718302724235 98.25278274870948 0.19008849587343102 100.71 0.2250000000000001 C 102.08791787003503 0.20694942293929713 103.44871481098967 0.5316850565761976 104.66999999999999 1.1700000000000013 L 102.28499999999998 9.09 C 100.94717905324593 8.463437489813348 99.48727016929867 8.14072078915132 98.00999999999998 8.144999999999998 C 95.27799999999998 8.145 94.27199999999998 10.485 93.90999999999998 11.879999999999999 L 91.74999999999999 24.164 Z" stroke-linecap="round" />
</g>
		<g transform="matrix(0.89 0 0 0.89 44.89 6.67)" id="bottom-logo-2"  >
<path style="stroke: none; stroke-width: 1; stroke-dasharray: none; stroke-linecap: butt; stroke-dashoffset: 0; stroke-linejoin: miter; stroke-miterlimit: 4; fill: rgb(255,255,255); fill-rule: nonzero; opacity: 1;" vector-effect="non-scaling-stroke"  transform=" translate(-5, -5)" d="M 0 5 C 0 2.238576250846033 2.238576250846033 0 5 0 C 7.761423749153967 0 10 2.2385762508460316 10 4.999999999999999 C 10 7.761423749153966 7.761423749153969 10 5.000000000000002 10 C 2.239946848990443 9.99669388366542 0.0033061163345804445 7.760053151009557 0 5 Z M 0.667 5 C 0.667 7.393049821016828 2.6069501789831717 9.333 5 9.333 C 7.393049821016828 9.333 9.333 7.393049821016827 9.333 5 C 9.333 2.6069501789831713 7.393049821016828 0.6669999999999998 5 0.6669999999999998 C 2.6080924074950027 0.6697553392144743 0.6697553392144737 2.6080924074950023 0.6669999999999998 4.999999999999999 Z M 3.4 7.5 L 2.713 7.5 L 3.6390000000000002 2.168 L 5.239000000000001 2.168 C 5.706248910425927 2.1398274097404846 6.166094481788489 2.294783171697292 6.521 2.6000000000000005 C 6.819998498860723 2.9015682667557523 6.957414120763917 3.3275566946556534 6.891 3.747 C 6.866780765579283 4.072467056467981 6.73885333437854 4.381595808027035 6.526 4.629 C 6.293795029103034 4.892636815113623 5.99660615395852 5.090877654102133 5.664 5.204 L 6.491 7.457 L 6.491 7.503 L 5.756 7.503 L 5.009 5.343 L 3.778 5.343 L 3.4 7.5 L 3.4 7.5 Z M 3.8729999999999998 4.768 L 4.8839999999999995 4.768 C 5.203692455154481 4.777260773627484 5.517194789583209 4.678630825717323 5.773999999999999 4.4879999999999995 C 6.01101085603268 4.30758659979451 6.164724510372313 4.038768119787406 6.2 3.743 C 6.249217334379713 3.488190496310922 6.181701702498727 3.224732758862291 6.016 3.025 C 5.822057745303746 2.838229101528117 5.559993337573971 2.7391868288136916 5.291 2.751 L 4.2250000000000005 2.751 Z" stroke-linecap="round" />
</g>
</g>
</g>
</svg>